<svg width="16" height="16" viewBox="0 0 16 16" fill="none" xmlns="http://www.w3.org/2000/svg">
<path d="M9.76221 8L15.7443 2.01718C15.9089 1.85248 15.9998 1.63275 16 1.39847C16 1.16405 15.9093 0.944062 15.7443 0.779628L15.2201 0.255496C15.0553 0.0904123 14.8357 0 14.6011 0C14.367 0 14.1472 0.0904123 13.9824 0.255496L8.00026 6.23793L2.01782 0.255496C1.85327 0.0904123 1.63343 0 1.39903 0C1.16488 0 0.945041 0.0904123 0.780488 0.255496L0.256 0.779628C-0.0853334 1.12098 -0.0853334 1.67621 0.256 2.01718L6.23831 8L0.256 13.9825C0.091317 14.1475 0.000650415 14.3672 0.000650415 14.6015C0.000650415 14.8358 0.091317 15.0555 0.256 15.2203L0.780358 15.7445C0.944911 15.9095 1.16488 16 1.39889 16C1.6333 16 1.85314 15.9095 2.01769 15.7445L8.00013 9.76193L13.9823 15.7445C14.1471 15.9095 14.3669 16 14.601 16H14.6013C14.8355 16 15.0552 15.9095 15.22 15.7445L15.7442 15.2203C15.9088 15.0557 15.9997 14.8358 15.9997 14.6015C15.9997 14.3672 15.9088 14.1475 15.7442 13.9827L9.76221 8Z" fill="#B6B6B6" fill-opacity="0.45"/>
</svg>
